<svg width="18" height="33" viewBox="0 0 18 33" fill="none" xmlns="http://www.w3.org/2000/svg">
<path d="M10.5365 32.876H5.74003C4.93886 32.876 4.28715 32.1605 4.28715 31.2809V19.4029H1.48877C0.687608 19.4029 0.0358887 18.6871 0.0358887 17.8077V12.718C0.0358887 11.8384 0.687608 11.1228 1.48877 11.1228H4.28715V8.57406C4.28715 6.04687 5.00993 3.89676 6.37713 2.35656C7.75049 0.809341 9.66977 -0.00830078 11.9275 -0.00830078L15.5855 -0.00177774C16.3853 -0.000272384 17.0359 0.715259 17.0359 1.59336V6.31908C17.0359 7.19869 16.3844 7.91422 15.5835 7.91422L13.1205 7.91523C12.3694 7.91523 12.1782 8.08056 12.1373 8.13124C12.0698 8.21529 11.9896 8.45288 11.9896 9.10895V11.1226H15.3984C15.655 11.1226 15.9036 11.1921 16.1173 11.323C16.5782 11.6058 16.8647 12.1404 16.8647 12.7182L16.8629 17.808C16.8629 18.6871 16.2112 19.4026 15.41 19.4026H11.9896V31.2809C11.9896 32.1605 11.3377 32.876 10.5365 32.876ZM6.04304 30.9482H10.2335V18.5398C10.2335 17.9525 10.6688 17.4748 11.2035 17.4748H15.107L15.1086 13.0506H11.2033C10.6686 13.0506 10.2335 12.573 10.2335 11.9856V9.10895C10.2335 8.35578 10.3032 7.49925 10.821 6.85548C11.4467 6.07722 12.4327 5.98741 13.1201 5.98741L15.28 5.9864V1.92554L11.9261 1.91952C8.29778 1.91952 6.04304 4.46954 6.04304 8.57406V11.9856C6.04304 12.5727 5.60795 13.0506 5.07323 13.0506H1.79178V17.4748H5.07323C5.60795 17.4748 6.04304 17.9525 6.04304 18.5398V30.9482ZM15.5821 1.92604H15.5823H15.5821Z" fill="white"/>
</svg>
