<svg width="30" height="33" viewBox="0 0 30 33" fill="none" xmlns="http://www.w3.org/2000/svg">
<path d="M21.5277 0.552612H7.99022C3.58434 0.552612 0 4.48156 0 9.31105V24.1503C0 28.9795 3.58434 32.9085 7.99022 32.9085H21.5279C25.9335 32.9085 29.5179 28.9795 29.5179 24.1503V9.31105C29.5179 4.48156 25.9335 0.552612 21.5277 0.552612V0.552612ZM27.7874 24.1503C27.7874 27.9336 24.9794 31.0116 21.5277 31.0116H7.99022C4.53853 31.0116 1.73046 27.9336 1.73046 24.1503V9.31105C1.73046 5.52749 4.53853 2.44945 7.99022 2.44945H21.5279C24.9794 2.44945 27.7874 5.52749 27.7874 9.31105V24.1503Z" fill="white"/>
<path d="M14.7589 7.88367C10.3085 7.88367 6.68787 11.8524 6.68787 16.7307C6.68787 21.6091 10.3085 25.5778 14.7589 25.5778C19.2094 25.5778 22.83 21.6091 22.83 16.7307C22.83 11.8524 19.2094 7.88367 14.7589 7.88367ZM14.7589 23.6809C11.2629 23.6809 8.41833 20.5632 8.41833 16.7307C8.41833 12.8985 11.2629 9.78051 14.7589 9.78051C18.2552 9.78051 21.0995 12.8985 21.0995 16.7307C21.0995 20.5632 18.2552 23.6809 14.7589 23.6809Z" fill="white"/>
<path d="M23.023 4.74158C21.7078 4.74158 20.6381 5.91439 20.6381 7.35578C20.6381 8.79742 21.7078 9.97023 23.023 9.97023C24.3382 9.97023 25.4081 8.79742 25.4081 7.35578C25.4081 5.91414 24.3382 4.74158 23.023 4.74158ZM23.023 8.07314C22.6622 8.07314 22.3685 7.75124 22.3685 7.35578C22.3685 6.96007 22.6622 6.63842 23.023 6.63842C23.384 6.63842 23.6776 6.96007 23.6776 7.35578C23.6776 7.75124 23.384 8.07314 23.023 8.07314Z" fill="white"/>
</svg>
