<svg width="31" height="25" viewBox="0 0 31 25" fill="none" xmlns="http://www.w3.org/2000/svg">
<path d="M30.2703 0.794976C29.9764 0.41835 29.4891 0.27868 29.0559 0.446283L1.53699 10.9092C0.987216 11.1195 0.601322 11.6293 0.529682 12.2397C0.458728 12.8473 0.713245 13.4368 1.19069 13.7761L5.12425 16.6013C5.50533 16.8751 5.99537 16.9044 6.40347 16.6778L14.9362 11.9437L8.28602 17.1681C7.97382 17.4135 7.78728 17.8048 7.78728 18.2147V23.054C7.78728 23.5532 8.04752 24.0105 8.46637 24.2479C8.88591 24.4854 9.39266 24.4618 9.79114 24.1853L12.7796 22.0997L15.7185 24.208C15.976 24.3936 16.2827 24.4914 16.5921 24.4914C16.6967 24.4914 16.8018 24.4801 16.9052 24.4574C17.3179 24.3669 17.683 24.0986 17.907 23.7215L30.3575 2.12136C30.5999 1.70548 30.5651 1.17329 30.2703 0.794976ZM16.5264 22.548L13.483 20.3646C13.2713 20.2124 13.0273 20.1363 12.7835 20.1363C12.545 20.1363 12.3063 20.2093 12.0973 20.3552L9.54601 22.1358V18.4878L21.2888 9.26257C21.8131 8.85055 21.9452 8.10067 21.5957 7.51839C21.246 6.93611 20.5458 6.73937 19.967 7.06061L5.85873 14.8881L2.53171 12.4986L27.8728 2.86377L16.5264 22.548Z" fill="white"/>
</svg>
