<svg width="31" height="33" viewBox="0 0 31 33" fill="none" xmlns="http://www.w3.org/2000/svg">
<path d="M25.8433 4.65053C23.1395 1.68677 19.5454 0.0548096 15.7215 0.0548096C15.7212 0.0548096 15.7203 0.0548096 15.7201 0.0548096C13.8289 0.0550564 11.9858 0.456444 10.2425 1.24811C8.49895 2.03978 6.93694 3.18445 5.59945 4.65053C2.89588 7.61403 1.40705 11.5543 1.40705 15.7455C1.40705 18.2449 1.95723 20.7288 2.9997 22.9418L0.593616 30.4764C0.424038 31.0078 0.544071 31.5855 0.907551 31.9837C1.16181 32.2626 1.49646 32.4107 1.84057 32.4107C1.98808 32.4107 2.13716 32.3836 2.28265 32.3278L9.15632 29.6906C11.1753 30.8333 13.4413 31.4364 15.7215 31.4364C19.545 31.4364 23.1395 29.8042 25.8433 26.8407C28.5468 23.8772 30.0359 19.9368 30.0359 15.7457C30.0359 11.5543 28.5471 7.61403 25.8433 4.65053ZM24.6191 25.4988C22.2425 28.1041 19.0824 29.5386 15.7215 29.5386C13.6654 29.5386 11.6228 28.9811 9.81437 27.9261C9.48647 27.735 9.0989 27.7022 8.75096 27.8357L2.50605 30.2315L4.69188 23.3862C4.81371 23.0043 4.78354 22.5794 4.60923 22.2203C3.64693 20.2385 3.1382 17.9995 3.1382 15.7455C3.1382 12.0614 4.44708 8.59751 6.82366 5.99244C9.20001 3.38761 12.3596 1.95289 15.7203 1.95239H15.7215C19.0826 1.95239 22.2425 3.38712 24.6191 5.99244C26.9959 8.59751 28.3047 12.0611 28.3047 15.7455C28.3047 19.4298 26.9959 22.8937 24.6191 25.4988Z" fill="white"/>
<path d="M21.0412 17.1472C20.3827 16.4254 19.3112 16.4254 18.6527 17.1472L17.9325 17.9367C16.1442 16.8685 14.697 15.2823 13.7223 13.322L14.4425 12.5325C15.1012 11.8107 15.1012 10.6362 14.4425 9.91437L12.5017 7.78696C11.8432 7.06515 10.7717 7.06515 10.1132 7.78696L8.56064 9.48879C7.67131 10.4636 7.62695 12.1395 8.43566 14.2079C9.13784 16.0038 10.4229 17.9777 12.054 19.7657C13.6852 21.5536 15.4859 22.9622 17.1243 23.7319C18.0208 24.153 18.8363 24.3631 19.5409 24.3631C20.3195 24.3631 20.9626 24.1066 21.4295 23.5949L22.982 21.8928V21.8931C23.3012 21.5433 23.4768 21.0784 23.4768 20.584C23.4768 20.0893 23.3012 19.6244 22.982 19.2749L21.0412 17.1472ZM20.2053 22.253C19.9515 22.5312 19.1709 22.6287 17.8064 21.9879C16.3655 21.311 14.7574 20.0451 13.2782 18.4237C11.7991 16.8024 10.6445 15.0398 10.0269 13.4605C9.44209 11.9648 9.53105 11.1089 9.78485 10.8307L11.3077 9.16146L13.1886 11.2234L12.2871 12.2119C11.8795 12.6587 11.7811 13.3363 12.0425 13.8981C13.2278 16.4457 15.0828 18.479 17.4069 19.7782C17.9197 20.0648 18.5379 19.9572 18.9455 19.5102L19.847 18.522L21.7281 20.584L20.2053 22.253Z" fill="white"/>
</svg>
