<svg width="183" height="51" viewBox="0 0 183 51" fill="none" xmlns="http://www.w3.org/2000/svg">
<g id="&#208;&#187;&#208;&#190;&#208;&#179;&#208;&#190; (1) 1">
<path id="Vector" d="M15.3038 24.1536C15.3038 23.2384 14.9806 22.5384 14.3343 22.0538C13.688 21.5584 12.5247 21.0415 10.8443 20.5031C9.16389 19.954 7.83356 19.4154 6.85334 18.8878C4.18194 17.4448 2.84624 15.5011 2.84624 13.0567C2.84624 11.786 3.2017 10.6553 3.91265 9.66455C4.63435 8.66307 5.66306 7.88234 6.99876 7.32238C8.34523 6.76241 9.85328 6.48242 11.5229 6.48242C13.2033 6.48242 14.7006 6.78933 16.0147 7.40314C17.3288 8.00618 18.3468 8.86229 19.0686 9.97146C19.801 11.0806 20.1672 12.3405 20.1672 13.7512H15.3199C15.3199 12.6744 14.9806 11.8398 14.302 11.2475C13.6234 10.6445 12.6701 10.343 11.4421 10.343C10.2572 10.343 9.33623 10.596 8.67916 11.1022C8.02207 11.5975 7.69353 12.2544 7.69353 13.0728C7.69353 13.8374 8.07594 14.4781 8.84073 14.995C9.61629 15.5119 10.7527 15.9965 12.25 16.4488C15.0075 17.278 17.0165 18.3063 18.2767 19.534C19.5371 20.7616 20.1672 22.2907 20.1672 24.1214C20.1672 26.1567 19.397 27.7557 17.8568 28.9188C16.3164 30.071 14.2428 30.6472 11.636 30.6472C9.82635 30.6472 8.17826 30.3187 6.69176 29.6618C5.20526 28.9942 4.06884 28.0842 3.28249 26.932C2.50692 25.7797 2.11914 24.4445 2.11914 22.926H6.9826C6.9826 25.5212 8.53374 26.8189 11.636 26.8189C12.7886 26.8189 13.688 26.5874 14.3343 26.1243C14.9806 25.6505 15.3038 24.9936 15.3038 24.1536ZM61.2723 26.4313H71.5648V30.3241H56.4251V6.80549H61.2723V26.4313ZM87.9648 25.4782H79.4658L77.8502 30.3241H72.6958L81.4534 6.80549H85.9452L94.7511 30.3241H89.5968L87.9648 25.4782ZM80.7747 21.553H86.6561L83.6993 12.7497L80.7747 21.553ZM105.657 21.7146H101.796V30.3241H96.9484V6.80549H105.69C108.469 6.80549 110.613 7.42468 112.12 8.66307C113.629 9.90145 114.383 11.6513 114.383 13.9128C114.383 15.5173 114.033 16.858 113.332 17.9348C112.643 19.001 111.593 19.8516 110.182 20.487L115.271 30.0979V30.3241H110.069L105.657 21.7146ZM101.796 17.7894H105.706C106.923 17.7894 107.866 17.4825 108.534 16.8688C109.201 16.2442 109.535 15.3881 109.535 14.3004C109.535 13.1913 109.218 12.319 108.582 11.6836C107.957 11.0483 106.993 10.7306 105.69 10.7306H101.796V17.7894ZM140.477 20.1316H131.17V26.4313H142.093V30.3241H126.323V6.80549H142.061V10.7306H131.17V16.3357H140.477V20.1316ZM153.355 14.9142L157.766 6.80549H163.34L156.49 18.4678L163.518 30.3241H157.879L153.355 22.086L148.831 30.3241H143.192L150.221 18.4678L143.37 6.80549H148.944L153.355 14.9142ZM180.128 20.1316H170.821V26.4313H181.744V30.3241H165.973V6.80549H181.711V10.7306H170.821V16.3357H180.128V20.1316Z" fill="black"/>
<path id="Vector_2" d="M37.8931 10.1855C32.3892 10.1855 27.9111 14.6622 27.9111 20.1645C27.9111 25.667 32.3892 30.1437 37.8931 30.1437C43.3973 30.1437 47.8752 25.6671 47.8752 20.1645C47.8752 14.6622 43.3973 10.1855 37.8931 10.1855ZM37.8931 28.3867C33.358 28.3867 29.6687 24.6983 29.6687 20.1645C29.6687 15.631 33.358 11.9425 37.8931 11.9425C42.4281 11.9425 46.1175 15.631 46.1175 20.1645C46.1175 24.6981 42.4281 28.3867 37.8931 28.3867Z" fill="black"/>
<path id="Vector_3" d="M37.8944 3.62598C37.4084 3.62598 37.0146 4.01928 37.0146 4.50453V7.96369C37.0146 8.44903 37.4086 8.84234 37.8944 8.84234C38.3804 8.84234 38.7742 8.44903 38.7742 7.96379V4.50453C38.7742 4.01938 38.3804 3.62598 37.8944 3.62598Z" fill="black"/>
<path id="Vector_4" d="M49.5917 8.47025C49.2484 8.1271 48.692 8.1271 48.3487 8.47025L45.9019 10.9164C45.5587 11.2595 45.5587 11.8156 45.9019 12.1587C46.0734 12.3303 46.2983 12.4161 46.5233 12.4161C46.7482 12.4161 46.9731 12.3303 47.1448 12.1587L49.5915 9.71257C49.9349 9.36953 49.9349 8.8133 49.5917 8.47025Z" fill="black"/>
<path id="Vector_5" d="M29.8839 28.1713C29.5406 27.8284 28.9843 27.8282 28.641 28.1713L26.194 30.6174C25.8507 30.9606 25.8507 31.5168 26.1939 31.86C26.3657 32.0316 26.5904 32.1173 26.8154 32.1173C27.0403 32.1173 27.2652 32.0316 27.4367 31.86L29.8837 29.4138C30.227 29.0707 30.227 28.5144 29.8839 28.1713Z" fill="black"/>
<path id="Vector_6" d="M53.5589 19.2861H50.0984C49.6132 19.2861 49.2197 19.6794 49.2197 20.1647C49.2197 20.6498 49.613 21.0433 50.0984 21.0433H53.5589C54.0444 21.0433 54.4377 20.6499 54.4377 20.1647C54.4376 19.6794 54.0442 19.2861 53.5589 19.2861Z" fill="black"/>
<path id="Vector_7" d="M25.6877 19.2861H22.2275C21.742 19.2861 21.3486 19.6794 21.3486 20.1647C21.3486 20.6498 21.742 21.0433 22.2275 21.0433H25.6877C26.1733 21.0433 26.5665 20.6499 26.5665 20.1647C26.5665 19.6794 26.1733 19.2861 25.6877 19.2861Z" fill="black"/>
<path id="Vector_8" d="M29.8846 10.9162L27.4377 8.47018C27.0946 8.12703 26.5382 8.12722 26.195 8.47018C25.8517 8.81333 25.8517 9.36956 26.1951 9.7127L28.6419 12.1588C28.8134 12.3303 29.0383 12.4162 29.2632 12.4162C29.4881 12.4162 29.7129 12.3304 29.8847 12.1588C30.2278 11.8156 30.2278 11.2593 29.8846 10.9162Z" fill="black"/>
<path id="Vector_9" d="M49.5917 30.6175L47.1449 28.1715C46.8017 27.8283 46.2454 27.8283 45.9019 28.1715C45.5587 28.5146 45.5587 29.0707 45.9019 29.4138L48.3487 31.8599C48.5204 32.0315 48.7452 32.1172 48.9703 32.1172C49.1951 32.1172 49.42 32.0315 49.5917 31.8599C49.935 31.5168 49.935 30.9606 49.5917 30.6175Z" fill="black"/>
<path id="Vector_10" d="M60.9242 48.75L61.1683 46.971L61.2794 46.161L66.142 46.8277C66.6228 46.8938 67.0661 46.5576 67.1321 46.0768C67.198 45.5959 66.8617 45.1529 66.3808 45.087L61.5182 44.4203L62.1202 40.0332L66.9826 40.6999C67.4634 40.7659 67.9068 40.4297 67.9727 39.949C68.0388 39.468 67.7024 39.0252 67.2216 38.9591L62.359 38.2924L62.4701 37.4825L62.7142 35.7034C62.7802 35.2226 62.4438 34.7796 61.963 34.7137C61.4822 34.6477 61.0388 34.9839 60.9729 35.4647L60.8483 36.3734L56.5477 35.7836C53.747 35.3996 51.1362 37.1405 50.3484 39.767L42.6072 38.7057C40.0732 38.3582 38.2943 36.0145 38.6419 33.4813L38.9229 31.4336C38.9888 30.9528 38.6525 30.5098 38.1716 30.4438C37.6907 30.3779 37.2476 30.714 37.1815 31.1949L36.9007 33.2426C36.4214 36.7357 38.8741 39.9671 42.3682 40.4463L50.1094 41.5078C50.1609 44.2492 52.2063 46.6287 55.007 47.0127L59.3075 47.6024L59.1828 48.511C59.1169 48.9918 59.4532 49.4348 59.9341 49.5008C60.4151 49.5669 60.8583 49.2307 60.9242 48.75ZM55.246 45.2721C53.1093 44.9791 51.6096 43.0029 51.9026 40.8671C52.1955 38.7312 54.1723 37.2316 56.3089 37.5247L60.6095 38.1143L59.5466 45.8619L55.246 45.2721Z" fill="black"/>
<path id="Vector_11" d="M104.956 3.13502C105.442 3.13502 105.836 2.74168 105.836 2.25648C105.836 1.77126 105.442 1.37793 104.956 1.37793C104.47 1.37793 104.076 1.77126 104.076 2.25648C104.076 2.74168 104.47 3.13502 104.956 3.13502Z" fill="black"/>
<path id="Vector_12" d="M100.819 3.13502C101.305 3.13502 101.699 2.74168 101.699 2.25648C101.699 1.77126 101.305 1.37793 100.819 1.37793C100.333 1.37793 99.9395 1.77126 99.9395 2.25648C99.9395 2.74168 100.333 3.13502 100.819 3.13502Z" fill="black"/>
</g>
</svg>
