<svg width="182" height="51" viewBox="0 0 182 51" fill="none" xmlns="http://www.w3.org/2000/svg">
<g id="&#208;&#187;&#208;&#190;&#208;&#179;&#208;&#190; (1) 1">
<path id="Vector" d="M14.6371 24.1539C14.6371 23.2386 14.3139 22.5387 13.6676 22.054C13.0213 21.5587 11.8579 21.0418 10.1775 20.5034C8.49714 19.9542 7.16681 19.4157 6.18659 18.888C3.51519 17.445 2.17949 15.5014 2.17949 13.0569C2.17949 11.7862 2.53496 10.6555 3.2459 9.66479C3.9676 8.66332 4.99631 7.88259 6.33201 7.32262C7.67848 6.76266 9.18653 6.48267 10.8562 6.48267C12.5366 6.48267 14.0338 6.78958 15.348 7.40338C16.6621 8.00642 17.68 8.86253 18.4018 9.9717C19.1343 11.0809 19.5005 12.3408 19.5005 13.7515H14.6532C14.6532 12.6746 14.3139 11.84 13.6353 11.2478C12.9566 10.6447 12.0034 10.3432 10.7754 10.3432C9.59048 10.3432 8.66949 10.5963 8.01241 11.1024C7.35532 11.5977 7.02678 12.2546 7.02678 13.0731C7.02678 13.8377 7.40919 14.4783 8.17398 14.9952C8.94955 15.5121 10.086 15.9968 11.5833 16.449C14.3408 17.2782 16.3498 18.3065 17.61 19.5342C18.8704 20.7618 19.5005 22.291 19.5005 24.1216C19.5005 26.1569 18.7303 27.756 17.19 28.9191C15.6496 30.0712 13.576 30.6474 10.9693 30.6474C9.1596 30.6474 7.51151 30.3189 6.02501 29.662C4.53851 28.9945 3.40209 28.0844 2.61574 26.9323C1.84017 25.7799 1.45239 24.4447 1.45239 22.9263H6.31585C6.31585 25.5215 7.86699 26.8191 10.9693 26.8191C12.1218 26.8191 13.0213 26.5877 13.6676 26.1245C14.3139 25.6508 14.6371 24.9938 14.6371 24.1539ZM60.6056 26.4315H70.8981V30.3243H55.7583V6.80573H60.6056V26.4315ZM87.2981 25.4785H78.7991L77.1834 30.3243H72.0291L80.7866 6.80573H85.2784L94.0843 30.3243H88.93L87.2981 25.4785ZM80.108 21.5533H85.9893L83.0325 12.75L80.108 21.5533ZM104.991 21.7148H101.129V30.3243H96.2817V6.80573H105.023C107.802 6.80573 109.946 7.42493 111.454 8.66332C112.962 9.90169 113.716 11.6516 113.716 13.9131C113.716 15.5175 113.366 16.8582 112.666 17.935C111.976 19.0012 110.926 19.8518 109.515 20.4872L114.605 30.0981V30.3243H109.402L104.991 21.7148ZM101.129 17.7896H105.039C106.256 17.7896 107.199 17.4828 107.867 16.869C108.535 16.2445 108.869 15.3883 108.869 14.3007C108.869 13.1915 108.551 12.3192 107.915 11.6839C107.29 11.0485 106.326 10.7309 105.023 10.7309H101.129V17.7896ZM139.81 20.1319H130.504V26.4315H141.426V30.3243H125.656V6.80573H141.394V10.7309H130.504V16.336H139.81V20.1319ZM152.688 14.9145L157.099 6.80573H162.673L155.823 18.4681L162.851 30.3243H157.212L152.688 22.0863L148.164 30.3243H142.525L149.554 18.4681L142.703 6.80573H148.277L152.688 14.9145ZM179.461 20.1319H170.155V26.4315H181.077V30.3243H165.307V6.80573H181.044V10.7309H170.155V16.336H179.461V20.1319Z" fill="white"/>
<path id="Vector_2" d="M37.2259 10.1858C31.7219 10.1858 27.2439 14.6624 27.2439 20.1648C27.2439 25.6673 31.7219 30.144 37.2259 30.144C42.73 30.144 47.2079 25.6674 47.2079 20.1648C47.2079 14.6624 42.73 10.1858 37.2259 10.1858ZM37.2259 28.3869C32.6908 28.3869 29.0014 24.6985 29.0014 20.1648C29.0014 15.6313 32.6908 11.9428 37.2259 11.9428C41.7609 11.9428 45.4502 15.6313 45.4502 20.1648C45.4502 24.6984 41.7609 28.3869 37.2259 28.3869Z" fill="white"/>
<path id="Vector_3" d="M37.2271 3.62549C36.7411 3.62549 36.3474 4.01879 36.3474 4.50404V7.9632C36.3474 8.44854 36.7413 8.84185 37.2271 8.84185C37.7131 8.84185 38.1069 8.44854 38.1069 7.9633V4.50404C38.1069 4.01889 37.7131 3.62549 37.2271 3.62549Z" fill="white"/>
<path id="Vector_4" d="M48.9248 8.46976C48.5814 8.12662 48.0251 8.12662 47.6818 8.46976L45.235 10.9159C44.8918 11.259 44.8918 11.8152 45.235 12.1582C45.4065 12.3298 45.6314 12.4156 45.8564 12.4156C46.0813 12.4156 46.3062 12.3298 46.4778 12.1582L48.9246 9.71208C49.2679 9.36904 49.2679 8.81281 48.9248 8.46976Z" fill="white"/>
<path id="Vector_5" d="M29.2173 28.1713C28.874 27.8284 28.3177 27.8282 27.9744 28.1713L25.5274 30.6174C25.1841 30.9606 25.1841 31.5168 25.5273 31.86C25.6991 32.0316 25.9238 32.1173 26.1489 32.1173C26.3737 32.1173 26.5986 32.0316 26.7701 31.86L29.2171 29.4138C29.5604 29.0707 29.5604 28.5144 29.2173 28.1713Z" fill="white"/>
<path id="Vector_6" d="M52.8917 19.2864H49.4312C48.946 19.2864 48.5525 19.6796 48.5525 20.165C48.5525 20.65 48.9457 21.0435 49.4312 21.0435H52.8917C53.3771 21.0435 53.7705 20.6501 53.7705 20.165C53.7704 19.6796 53.377 19.2864 52.8917 19.2864Z" fill="white"/>
<path id="Vector_7" d="M25.0209 19.2864H21.5607C21.0752 19.2864 20.6818 19.6796 20.6818 20.165C20.6818 20.65 21.0752 21.0435 21.5607 21.0435H25.0209C25.5065 21.0435 25.8997 20.6501 25.8997 20.165C25.8997 19.6796 25.5065 19.2864 25.0209 19.2864Z" fill="white"/>
<path id="Vector_8" d="M29.2173 10.9159L26.7704 8.46993C26.4274 8.12679 25.8709 8.12698 25.5277 8.46993C25.1844 8.81308 25.1844 9.36931 25.5278 9.71246L27.9746 12.1586C28.1462 12.3301 28.371 12.416 28.5959 12.416C28.8208 12.416 29.0457 12.3302 29.2175 12.1586C29.5605 11.8153 29.5605 11.2591 29.2173 10.9159Z" fill="white"/>
<path id="Vector_9" d="M48.9248 30.6175L46.478 28.1715C46.1348 27.8283 45.5784 27.8283 45.235 28.1715C44.8918 28.5146 44.8918 29.0707 45.235 29.4138L47.6818 31.8599C47.8534 32.0315 48.0783 32.1172 48.3033 32.1172C48.5282 32.1172 48.7531 32.0315 48.9248 31.8599C49.2681 31.5168 49.2681 30.9606 48.9248 30.6175Z" fill="white"/>
<path id="Vector_10" d="M60.2573 48.75L60.5014 46.971L60.6125 46.161L65.4751 46.8277C65.9558 46.8938 66.3991 46.5576 66.4652 46.0768C66.5311 45.5959 66.1948 45.1529 65.7139 45.087L60.8513 44.4203L61.4533 40.0332L66.3157 40.6999C66.7965 40.7659 67.2399 40.4297 67.3058 39.949C67.3719 39.468 67.0354 39.0252 66.5546 38.9591L61.6921 38.2924L61.8032 37.4825L62.0473 35.7034C62.1133 35.2226 61.7769 34.7796 61.2961 34.7137C60.8153 34.6477 60.3719 34.9839 60.306 35.4647L60.1813 36.3734L55.8808 35.7836C53.08 35.3996 50.4693 37.1405 49.6815 39.767L41.9402 38.7057C39.4063 38.3582 37.6274 36.0145 37.975 33.4813L38.256 31.4336C38.3219 30.9528 37.9856 30.5098 37.5047 30.4438C37.0238 30.3779 36.5806 30.714 36.5146 31.1949L36.2337 33.2426C35.7545 36.7357 38.2072 39.9671 41.7013 40.4463L49.4425 41.5078C49.4939 44.2492 51.5394 46.6287 54.3401 47.0127L58.6405 47.6024L58.5159 48.511C58.45 48.9918 58.7863 49.4348 59.2672 49.5008C59.7481 49.5669 60.1914 49.2307 60.2573 48.75ZM54.579 45.2721C52.4423 44.9791 50.9426 43.0029 51.2356 40.8671C51.5286 38.7312 53.5054 37.2316 55.642 37.5247L59.9425 38.1143L58.8796 45.8619L54.579 45.2721Z" fill="white"/>
<path id="Vector_11" d="M104.289 3.13551C104.775 3.13551 105.169 2.74217 105.169 2.25697C105.169 1.77175 104.775 1.37842 104.289 1.37842C103.803 1.37842 103.409 1.77175 103.409 2.25697C103.409 2.74217 103.803 3.13551 104.289 3.13551Z" fill="white"/>
<path id="Vector_12" d="M100.152 3.13551C100.638 3.13551 101.032 2.74217 101.032 2.25697C101.032 1.77175 100.638 1.37842 100.152 1.37842C99.6666 1.37842 99.2727 1.77175 99.2727 2.25697C99.2727 2.74217 99.6666 3.13551 100.152 3.13551Z" fill="white"/>
</g>
</svg>
